<svg width="109" height="32" viewBox="0 0 109 32" fill="none" xmlns="http://www.w3.org/2000/svg">
<path d="M3.25748 0.00220935C3.67215 -0.00498211 4.08401 0.0714911 4.46846 0.22706C4.85291 0.382628 5.20206 0.614099 5.49504 0.907642C6.12969 1.53417 6.50183 2.37893 6.53577 3.27009V9.04613C7.36343 8.52671 8.28423 8.17324 9.24686 8.0054C10.2218 7.80952 11.2133 7.70845 12.2077 7.70359C14.5674 7.68357 16.8817 8.35226 18.867 9.62776C20.8523 10.9032 22.4225 12.7301 23.3851 14.8846C24.0388 16.3369 24.3725 17.9128 24.3634 19.5054V28.6847C24.3685 29.1136 24.2872 29.5391 24.1245 29.936C23.9618 30.3329 23.721 30.6931 23.4164 30.9951C23.112 31.3078 22.749 31.5575 22.3481 31.7298C21.9472 31.9021 21.5163 31.9937 21.0799 31.9994C20.6713 32.0077 20.2651 31.9341 19.8853 31.7831C19.5055 31.6321 19.1598 31.4066 18.8684 31.12C18.2579 30.5205 17.869 29.7316 17.7652 28.8824V19.8437C17.7644 19.1114 17.6194 18.3864 17.3385 17.7102C17.0612 17.0382 16.6605 16.424 16.1573 15.8993C15.6545 15.3817 15.0576 14.9649 14.3985 14.6713C13.3933 14.2382 12.2826 14.1119 11.2058 14.3081C10.1291 14.5044 9.13434 15.0145 8.34663 15.7744C7.30728 16.7903 6.66193 18.1418 6.52536 19.5887V28.6847C6.53215 29.1124 6.45323 29.5372 6.29326 29.934C6.13328 30.3308 5.8955 30.6916 5.59391 30.9951C5.28958 31.3078 4.92658 31.5575 4.52567 31.7298C4.12476 31.9021 3.69381 31.9937 3.25748 31.9994C2.8608 32.0052 2.4671 31.9302 2.10032 31.779C1.73354 31.6278 1.40136 31.4036 1.12399 31.12C0.528569 30.5071 0.136151 29.7259 0 28.8824V3.06715C0.0580816 2.25367 0.405053 1.48775 0.978284 0.907642C1.27523 0.606257 1.63174 0.370081 2.02506 0.214184C2.41839 0.058287 2.83989 -0.0139068 3.26268 0.00220935H3.25748ZM3.26268 0.00220935C3.67735 -0.00498211 4.08922 0.0714911 4.47367 0.22706C4.85812 0.382628 5.20726 0.614099 5.50024 0.907642C6.13489 1.53417 6.50703 2.37893 6.54097 3.27009V9.04613C7.36864 8.52671 8.28943 8.17324 9.25206 8.0054C10.227 7.80952 11.2186 7.70845 12.2129 7.70359C14.5726 7.68357 16.8869 8.35226 18.8722 9.62776C20.8575 10.9032 22.4277 12.7301 23.3903 14.8846C24.044 16.3369 24.3777 17.9128 24.3686 19.5054V28.6847C24.373 29.114 24.2909 29.5397 24.1273 29.9367C23.9637 30.3336 23.7219 30.6935 23.4164 30.9951C23.112 31.3078 22.749 31.5575 22.3481 31.7298C21.9472 31.9021 21.5163 31.9937 21.0799 31.9994C20.6713 32.0077 20.2651 31.9341 19.8853 31.7831C19.5055 31.6321 19.1598 31.4066 18.8684 31.12C18.2579 30.5205 17.869 29.7316 17.7652 28.8824V19.8437C17.7644 19.1114 17.6194 18.3864 17.3385 17.7102C17.0612 17.0382 16.6605 16.424 16.1573 15.8993C15.6545 15.3817 15.0576 14.9649 14.3985 14.6713C13.3933 14.2382 12.2826 14.1119 11.2058 14.3081C10.1291 14.5044 9.13434 15.0145 8.34663 15.7744C7.30728 16.7903 6.66193 18.1418 6.52536 19.5887V28.6847C6.53215 29.1124 6.45323 29.5372 6.29326 29.934C6.13328 30.3308 5.8955 30.6916 5.59391 30.9951C5.28958 31.3078 4.92658 31.5575 4.52567 31.7298C4.12476 31.9021 3.69381 31.9937 3.25748 31.9994C2.8608 32.0052 2.4671 31.9302 2.10032 31.779C1.73354 31.6278 1.40136 31.4036 1.12399 31.12C0.528569 30.5071 0.136151 29.7259 0 28.8824V3.06715C0.0580816 2.25367 0.405053 1.48775 0.978284 0.907642C1.27523 0.606257 1.63174 0.370081 2.02506 0.214184C2.41839 0.058287 2.83989 -0.0139068 3.26268 0.00220935ZM20.7365 11.1016C21.8471 12.1785 22.7425 13.4571 23.3747 14.869C24.0284 16.3213 24.3621 17.8972 24.353 19.4898V28.6847C24.3594 29.1128 24.2798 29.538 24.1189 29.9348C23.958 30.3317 23.7191 30.6922 23.4164 30.9951C23.112 31.3078 22.749 31.5575 22.3481 31.7298C21.9472 31.9021 21.5163 31.9937 21.0799 31.9994C20.6713 32.0077 20.2651 31.9341 19.8853 31.7831C19.5055 31.6321 19.1598 31.4066 18.8684 31.12C18.2579 30.5205 17.869 29.7316 17.7652 28.8824V19.8437C17.7644 19.1114 17.6194 18.3864 17.3385 17.7102C17.0612 17.0382 16.6605 16.424 16.1573 15.8993L20.7365 11.1016ZM20.7261 11.1016C21.8367 12.1785 22.7321 13.4571 23.3643 14.869C24.018 16.3213 24.3516 17.8972 24.3426 19.4898V28.6847C24.3504 29.1121 24.2724 29.5368 24.1133 29.9336C23.9542 30.3304 23.7172 30.6914 23.4164 30.9951C23.112 31.3078 22.749 31.5575 22.3481 31.7298C21.9472 31.9021 21.5163 31.9937 21.0799 31.9994C20.6713 32.0077 20.2651 31.9341 19.8853 31.7831C19.5055 31.6321 19.1598 31.4066 18.8684 31.12C18.2579 30.5205 17.869 29.7316 17.7652 28.8824V19.8437C17.7644 19.1114 17.6194 18.3864 17.3385 17.7102C17.0612 17.0382 16.6605 16.424 16.1573 15.8993" fill="#358DCC"/>
<path d="M20.7367 11.1016C21.8473 12.1785 22.7427 13.4571 23.3749 14.869C24.0286 16.3213 24.3622 17.8972 24.3532 19.4898V28.6847C24.3596 29.1128 24.28 29.538 24.1191 29.9348C23.9582 30.3317 23.7193 30.6922 23.4165 30.9951C23.1122 31.3078 22.7492 31.5575 22.3483 31.7298C21.9474 31.9021 21.5164 31.9937 21.0801 31.9994C20.6715 32.0076 20.2653 31.9341 19.8855 31.7831C19.5057 31.6321 19.1599 31.4066 18.8686 31.12C18.2581 30.5205 17.8691 29.7316 17.7654 28.8824V19.8437C17.7646 19.1114 17.6196 18.3864 17.3387 17.7102C17.0613 17.0382 16.6607 16.424 16.1575 15.8993" fill="#2AB2A4"/>
<path d="M17.9328 17.1846C16.8536 17.1781 15.8159 16.7679 15.024 16.0346C14.6219 15.635 14.3088 15.1549 14.1052 14.6258C13.9016 14.0967 13.8122 13.5305 13.8428 12.9644C13.8534 12.4341 13.9736 11.9116 14.1957 11.4299C14.4177 10.9481 14.7369 10.5174 15.1333 10.1649C15.8951 9.43743 16.9107 9.03603 17.9641 9.04608C18.4937 9.04158 19.0183 9.14913 19.5035 9.36168C19.9887 9.57422 20.4234 9.88695 20.7792 10.2793C21.5165 11.0404 21.9287 12.0584 21.9287 13.1179C21.9287 14.1775 21.5165 15.1955 20.7792 15.9565C20.423 16.348 19.988 16.6597 19.5029 16.8713C19.0177 17.083 18.4933 17.1897 17.9641 17.1846H17.9328Z" fill="#E76267"/>
<path d="M17.9623 9.85297C18.3825 9.84794 18.799 9.9326 19.184 10.1013C19.5689 10.27 19.9135 10.5188 20.1946 10.8313C20.7915 11.4418 21.1257 12.2618 21.1257 13.1157C21.1257 13.9695 20.7915 14.7895 20.1946 15.4C19.9135 15.7125 19.5689 15.9613 19.184 16.13C18.799 16.2987 18.3825 16.3834 17.9623 16.3783C17.0776 16.3828 16.2241 16.0518 15.5738 15.4521C15.2537 15.1255 15.0059 14.7354 14.8463 14.3069C14.6868 13.8784 14.619 13.4211 14.6476 12.9647C14.6601 12.5444 14.7589 12.1312 14.9379 11.7507C15.117 11.3703 15.3724 11.0307 15.6883 10.7532C16.3063 10.1682 17.127 9.84553 17.9779 9.85297H17.9623ZM17.9779 8.23985C16.7111 8.2201 15.4872 8.69845 14.5695 9.57198C14.098 9.993 13.7166 10.5051 13.4483 11.0775C13.1801 11.6498 13.0304 12.2706 13.0084 12.9023V12.9647C12.9792 13.6386 13.092 14.3111 13.3394 14.9386C13.5868 15.5662 13.9634 16.1347 14.4446 16.6073C15.3777 17.4774 16.6032 17.9658 17.879 17.9758H17.9363C18.5746 17.9786 19.2066 17.8481 19.7917 17.5927C20.3767 17.3373 20.9021 16.9627 21.3342 16.4928C22.2081 15.5836 22.6962 14.3715 22.6962 13.1104C22.6962 11.8494 22.2081 10.6373 21.3342 9.72808C20.9009 9.25827 20.3746 8.88379 19.7887 8.62847C19.2028 8.37314 18.5702 8.24257 17.9311 8.24505" fill="white"/>
<path d="M17.9382 10.3418C17.3863 10.3408 16.8465 10.5035 16.3872 10.8093C15.9278 11.1152 15.5695 11.5504 15.3576 12.06C15.1457 12.5695 15.0897 13.1305 15.1968 13.6719C15.3038 14.2133 15.569 14.7107 15.9589 15.1013C16.3487 15.4919 16.8457 15.7581 17.3869 15.8661C17.9281 15.9742 18.4892 15.9192 18.9991 15.7083C19.5091 15.4973 19.945 15.1398 20.2517 14.6811C20.5584 14.2223 20.7221 13.6828 20.7221 13.131C20.7221 12.3921 20.429 11.6835 19.907 11.1606C19.3851 10.6376 18.677 10.3432 17.9382 10.3418ZM17.8913 15.5454L17.73 15.7068C17.5266 15.6933 17.3256 15.6548 17.1316 15.5923L17.2044 14.9887C17.2752 14.9734 17.3397 14.9368 17.389 14.8837C17.4383 14.8307 17.4701 14.7638 17.4802 14.692L18.9945 13.7658C19.0537 13.8079 19.1248 13.8297 19.1974 13.8282C19.2767 13.8281 19.3537 13.8014 19.4159 13.7523C19.4782 13.7033 19.5222 13.6347 19.5409 13.5577H20.5035C20.4589 13.8187 20.3747 14.0714 20.2538 14.307L20.1393 14.1925C20.0804 14.1342 20.0105 14.0881 19.9337 14.0568C19.8569 14.0255 19.7747 14.0098 19.6918 14.0104C19.6088 14.0092 19.5264 14.0247 19.4495 14.056C19.3727 14.0873 19.3028 14.1337 19.2443 14.1925L19.0205 14.4163C18.978 14.4581 18.9276 14.4912 18.8722 14.5135C18.8168 14.5358 18.7576 14.547 18.6979 14.5463C18.5298 14.5471 18.3689 14.6144 18.2504 14.7337L18.2087 14.7753C18.1504 14.8342 18.1043 14.9041 18.073 14.9809C18.0418 15.0577 18.026 15.1399 18.0266 15.2228C18.0266 15.2829 18.0146 15.3423 17.9914 15.3977C17.9682 15.4531 17.9341 15.5033 17.8913 15.5454ZM16.8506 14.4006L16.3302 13.7086V13.5577C16.3313 13.4656 16.3687 13.3777 16.4343 13.3131C16.4711 13.2791 16.5011 13.2385 16.5228 13.1934L17.2253 13.2923C17.2465 13.3828 17.3002 13.4624 17.3762 13.516L17.0639 14.3018C16.984 14.3163 16.9109 14.3565 16.8558 14.4163L16.8506 14.4006ZM15.992 13.3443C16.0537 13.299 16.0992 13.2352 16.1221 13.1622L16.325 13.1934C16.2462 13.2784 16.1954 13.3856 16.1793 13.5004L15.992 13.3443ZM15.43 12.9696H15.3363C15.3661 12.5029 15.5226 12.0531 15.7891 11.6687L15.9452 11.83C15.978 11.8607 16.0041 11.8977 16.022 11.9389C16.0399 11.9801 16.0492 12.0245 16.0492 12.0694V12.1631C16.0501 12.258 16.0751 12.3512 16.1221 12.4337L15.8983 12.7251C15.8604 12.7091 15.8198 12.7002 15.7786 12.699C15.6989 12.6998 15.6217 12.7267 15.5587 12.7755C15.4957 12.8244 15.4505 12.8926 15.43 12.9696ZM19.6449 11.7104C19.6933 11.7104 19.7396 11.7295 19.7737 11.7637C19.8079 11.7979 19.8271 11.8442 19.8271 11.8925C19.8271 11.9408 19.8079 11.9871 19.7737 12.0213C19.7396 12.0554 19.6933 12.0746 19.6449 12.0746C19.5966 12.0746 19.5503 12.0554 19.5162 12.0213C19.482 11.9871 19.4628 11.9408 19.4628 11.8925C19.4628 11.8442 19.482 11.7979 19.5162 11.7637C19.5503 11.7295 19.5966 11.7104 19.6449 11.7104ZM19.6449 12.2307C19.7304 12.2331 19.814 12.2049 19.8805 12.1512C19.9471 12.0974 19.9922 12.0217 20.0079 11.9377C20.0236 11.8536 20.0088 11.7667 19.9661 11.6926C19.9234 11.6185 19.8556 11.562 19.775 11.5334L19.8479 11.3513C20.1258 11.6468 20.3307 12.0032 20.4463 12.392H20.4099C20.3566 12.3917 20.3037 12.4021 20.2546 12.4226C20.2054 12.4432 20.1609 12.4735 20.1237 12.5117L20.0404 12.595C19.9961 12.6347 19.9387 12.657 19.8791 12.6574H19.6918C19.6621 12.6582 19.6325 12.6531 19.6048 12.6424C19.5772 12.6317 19.5519 12.6156 19.5305 12.595V12.569L19.6502 12.2047L19.6449 12.2307ZM19.5825 11.5178C19.4993 11.5325 19.424 11.576 19.3698 11.6408C19.3155 11.7055 19.2858 11.7872 19.2859 11.8717C19.286 11.9313 19.3008 11.9901 19.3289 12.0427C19.357 12.0953 19.3977 12.1402 19.4472 12.1735L19.3587 12.4441C19.3364 12.4237 19.3188 12.3987 19.3072 12.3709C19.2955 12.343 19.29 12.3129 19.2911 12.2828V12.1891C19.2913 12.135 19.2808 12.0815 19.2603 12.0315C19.2397 11.9815 19.2095 11.936 19.1714 11.8977L18.906 11.6375C18.8689 11.5993 18.8243 11.569 18.7752 11.5484C18.726 11.5279 18.6731 11.5175 18.6198 11.5178C18.5591 11.5178 18.5009 11.4937 18.4579 11.4508C18.415 11.4078 18.3909 11.3496 18.3909 11.2889C18.3911 11.2348 18.3806 11.1812 18.36 11.1312C18.3395 11.0812 18.3093 11.0358 18.2712 10.9975L18.0995 10.8257C18.0772 10.8054 18.0596 10.7804 18.0479 10.7525C18.0362 10.7247 18.0307 10.6946 18.0318 10.6644V10.5291C18.6553 10.5515 19.2499 10.7971 19.7074 11.2212L19.5825 11.5178ZM17.9642 10.9506L18.1411 11.1223C18.1817 11.1587 18.2076 11.2087 18.2139 11.2628C18.2153 11.371 18.2592 11.4742 18.3362 11.5502C18.4131 11.6261 18.5169 11.6687 18.625 11.6687C18.6852 11.6711 18.7425 11.6951 18.7863 11.7364L19.0465 12.0018C19.0688 12.0221 19.0864 12.0471 19.0981 12.075C19.1098 12.1028 19.1153 12.1329 19.1142 12.1631V12.3036C19.114 12.3576 19.1245 12.4112 19.145 12.4612C19.1655 12.5112 19.1957 12.5567 19.2339 12.595L19.3067 12.6626L19.1402 13.183H19.083L17.4334 11.5126C17.467 11.4578 17.485 11.3948 17.4854 11.3305C17.4847 11.2508 17.4578 11.1735 17.409 11.1105C17.3601 11.0475 17.2919 11.0023 17.2148 10.9818V10.6228C17.4197 10.5634 17.6313 10.5301 17.8445 10.5239V10.6592C17.8443 10.7133 17.8548 10.7668 17.8753 10.8168C17.8958 10.8668 17.926 10.9123 17.9642 10.9506ZM17.4438 14.5151C17.404 14.4268 17.3311 14.3577 17.2409 14.3226L17.5375 13.5785C17.6138 13.5788 17.6883 13.5547 17.7501 13.5098C17.8118 13.4649 17.8577 13.4014 17.8809 13.3287L18.8072 13.5629L18.8384 13.6513L17.4438 14.5151ZM18.9112 13.2558C18.8807 13.2926 18.8577 13.3351 18.8436 13.3807L17.9173 13.1466C17.9005 13.0653 17.8561 12.9924 17.7916 12.9402C17.727 12.8881 17.6465 12.8598 17.5635 12.8604L17.3241 11.6479L18.9112 13.2558ZM17.5635 13.0425C17.6109 13.0425 17.6565 13.0609 17.6905 13.094C17.7245 13.127 17.7443 13.172 17.7456 13.2194C17.7456 13.2677 17.7264 13.314 17.6923 13.3482C17.6581 13.3824 17.6118 13.4015 17.5635 13.4015C17.5161 13.4002 17.4711 13.3804 17.4381 13.3464C17.405 13.3124 17.3866 13.2668 17.3866 13.2194C17.3866 13.1725 17.4052 13.1275 17.4384 13.0943C17.4716 13.0611 17.5166 13.0425 17.5635 13.0425ZM19.0049 13.49C19.0049 13.454 19.0156 13.4188 19.0356 13.3888C19.0556 13.3589 19.0841 13.3355 19.1173 13.3217C19.1506 13.308 19.1872 13.3043 19.2226 13.3114C19.2579 13.3184 19.2903 13.3357 19.3158 13.3612C19.3413 13.3867 19.3586 13.4191 19.3657 13.4545C19.3727 13.4898 19.3691 13.5264 19.3553 13.5597C19.3415 13.593 19.3182 13.6214 19.2882 13.6414C19.2583 13.6614 19.2231 13.6721 19.187 13.6721C19.1387 13.6721 19.0924 13.6529 19.0582 13.6188C19.0241 13.5846 19.0049 13.5383 19.0049 13.49ZM17.116 11.1536C17.1392 11.1536 17.1622 11.1581 17.1837 11.167C17.2051 11.1759 17.2247 11.189 17.2411 11.2054C17.2575 11.2218 17.2705 11.2413 17.2794 11.2628C17.2883 11.2843 17.2929 11.3073 17.2929 11.3305C17.2929 11.3779 17.2745 11.4235 17.2414 11.4575C17.2084 11.4915 17.1634 11.5113 17.116 11.5126C17.0677 11.5126 17.0213 11.4934 16.9872 11.4593C16.953 11.4251 16.9339 11.3788 16.9339 11.3305C16.9352 11.2831 16.955 11.2381 16.989 11.2051C17.023 11.172 17.0686 11.1536 17.116 11.1536ZM16.9443 11.6739C16.9974 11.7011 17.0563 11.7154 17.116 11.7156L17.3606 12.9384C17.2853 12.9869 17.2299 13.0608 17.2044 13.1466L16.554 13.0529V12.8864C16.5544 12.8179 16.5413 12.75 16.5154 12.6866C16.4895 12.6232 16.4513 12.5655 16.4031 12.5169L16.325 12.4389L16.9443 11.6739ZM16.3042 12.6158C16.3372 12.6474 16.3634 12.6854 16.3813 12.7274C16.3992 12.7695 16.4084 12.8147 16.4083 12.8604V13.0009L16.1325 12.9592C16.1174 12.9014 16.0889 12.8479 16.0492 12.8031L16.247 12.5533L16.3042 12.6158ZM15.7838 12.8604C15.8262 12.8676 15.8647 12.8896 15.8924 12.9225C15.9201 12.9553 15.9353 12.9969 15.9353 13.0399C15.9353 13.0829 15.9201 13.1245 15.8924 13.1573C15.8647 13.1902 15.8262 13.2122 15.7838 13.2194C15.7577 13.2239 15.7309 13.2226 15.7053 13.2156C15.6798 13.2087 15.656 13.1962 15.6357 13.1791C15.6155 13.162 15.5992 13.1407 15.588 13.1166C15.5768 13.0926 15.571 13.0664 15.571 13.0399C15.571 13.0134 15.5768 12.9872 15.588 12.9631C15.5992 12.9391 15.6155 12.9178 15.6357 12.9007C15.656 12.8836 15.6798 12.8711 15.7053 12.8642C15.7309 12.8572 15.7577 12.8559 15.7838 12.8604ZM17.1316 14.4787C17.179 14.48 17.224 14.4998 17.257 14.5338C17.2901 14.5679 17.3085 14.6134 17.3085 14.6608C17.3085 14.7077 17.2899 14.7527 17.2567 14.7859C17.2235 14.8191 17.1785 14.8377 17.1316 14.8377C17.0842 14.8378 17.0386 14.8193 17.0046 14.7863C16.9706 14.7532 16.9508 14.7082 16.9495 14.6608C16.9495 14.6125 16.9687 14.5662 17.0028 14.532C17.037 14.4979 17.0833 14.4787 17.1316 14.4787ZM19.5461 13.4015C19.5314 13.3443 19.5029 13.2915 19.4629 13.2479C19.423 13.2044 19.3729 13.1713 19.3171 13.1518L19.442 12.7719C19.5126 12.8292 19.6008 12.8605 19.6918 12.8604H19.8791C19.9324 12.8607 19.9853 12.8503 20.0344 12.8298C20.0836 12.8092 20.1281 12.7789 20.1653 12.7407L20.2486 12.6574C20.2924 12.6162 20.3497 12.5921 20.4099 12.5898H20.4931C20.5293 12.7609 20.5485 12.9352 20.5504 13.1101C20.5556 13.2003 20.5556 13.2906 20.5504 13.3807L19.5461 13.4015ZM17.0431 10.68V10.9818C16.9661 11.0023 16.8979 11.0475 16.849 11.1105C16.8001 11.1735 16.7733 11.2508 16.7725 11.3305C16.7723 11.3989 16.7922 11.4659 16.8298 11.523L16.2522 12.2567C16.2472 12.2187 16.2472 12.1803 16.2522 12.1423V12.0486C16.2526 11.9801 16.2394 11.9122 16.2135 11.8488C16.1877 11.7854 16.1495 11.7278 16.1013 11.6791L15.9243 11.5022C16.2238 11.1311 16.6173 10.8472 17.0639 10.68H17.0431ZM15.456 13.131C15.4757 13.2084 15.5207 13.2771 15.5839 13.3261C15.647 13.3752 15.7247 13.4017 15.8047 13.4015H15.8463L16.1429 13.7814C16.1287 13.8336 16.0998 13.8805 16.0596 13.9167L15.9556 14.026C15.9073 14.0746 15.8692 14.1323 15.8433 14.1957C15.8174 14.2591 15.8043 14.327 15.8047 14.3954C15.8038 14.4461 15.7913 14.496 15.7682 14.5411C15.4977 14.1224 15.3532 13.6347 15.3519 13.1362L15.456 13.131ZM15.8775 14.692C15.9451 14.602 15.9816 14.4924 15.9816 14.3798C15.9809 14.3341 15.9898 14.2886 16.0077 14.2465C16.0256 14.2044 16.0522 14.1665 16.0857 14.1353L16.1897 14.0312C16.22 13.9999 16.2462 13.9649 16.2678 13.9271L16.7882 14.5984V14.6504C16.7894 14.7279 16.8152 14.803 16.862 14.8647C16.9088 14.9265 16.9741 14.9717 17.0483 14.9939L16.9807 15.5402C16.5435 15.3591 16.1614 15.0667 15.8723 14.692H15.8775ZM17.9954 15.7328L18.0422 15.6859C18.101 15.6274 18.1474 15.5576 18.1787 15.4807C18.21 15.4038 18.2255 15.3214 18.2244 15.2384C18.2239 15.1791 18.2356 15.1202 18.2589 15.0656C18.2822 15.011 18.3165 14.9618 18.3596 14.921L18.4013 14.8742C18.443 14.8327 18.4926 14.7998 18.547 14.7775C18.6015 14.7552 18.6598 14.7438 18.7187 14.7441C18.802 14.7443 18.8845 14.7278 18.9614 14.6957C19.0383 14.6635 19.1079 14.6163 19.1662 14.5567L19.39 14.3382C19.4316 14.2956 19.4814 14.2617 19.5364 14.2385C19.5913 14.2154 19.6504 14.2035 19.71 14.2035C19.7696 14.2035 19.8286 14.2154 19.8836 14.2385C19.9386 14.2617 19.9883 14.2956 20.03 14.3382L20.1809 14.4891C19.9514 14.8642 19.6306 15.175 19.2484 15.3925C18.8662 15.61 18.4351 15.7271 17.9954 15.7328Z" fill="white"/>
<path d="M31.1865 8.4332C31.1865 8.35809 31.2157 8.28593 31.268 8.23203C31.3204 8.17813 31.3916 8.14674 31.4667 8.14453H33.2242C33.2993 8.14674 33.3706 8.17813 33.4229 8.23203C33.4752 8.28593 33.5044 8.35809 33.5044 8.4332V12.1605H37.7496V8.4332C37.7496 8.35809 37.7788 8.28593 37.8311 8.23203C37.8834 8.17813 37.9547 8.14674 38.0298 8.14453H39.7533C39.8277 8.14876 39.8978 8.18078 39.9497 8.23425C40.0016 8.28772 40.0315 8.35872 40.0335 8.4332V18.2311C40.0314 18.3047 40.0012 18.3748 39.9491 18.4269C39.897 18.4789 39.827 18.5092 39.7533 18.5113H38.0553C37.9809 18.5113 37.9097 18.4818 37.8571 18.4292C37.8046 18.3767 37.7751 18.3054 37.7751 18.2311V14.334H33.5299V18.2311C33.5299 18.3054 33.5004 18.3767 33.4478 18.4292C33.3953 18.4818 33.324 18.5113 33.2497 18.5113H31.4667C31.3924 18.5113 31.3211 18.4818 31.2686 18.4292C31.216 18.3767 31.1865 18.3054 31.1865 18.2311V8.4332Z" fill="#338CCC"/>
<path d="M42.3008 8.4332C42.3007 8.35809 42.33 8.28593 42.3823 8.23203C42.4346 8.17813 42.5059 8.14674 42.581 8.14453H48.7025C48.7776 8.14674 48.8489 8.17813 48.9012 8.23203C48.9535 8.28593 48.9827 8.35809 48.9827 8.4332V10.0379C48.9827 10.113 48.9535 10.1852 48.9012 10.2391C48.8489 10.293 48.7776 10.3243 48.7025 10.3266H44.6017V12.1605H47.9978C48.0715 12.1626 48.1415 12.1928 48.1936 12.2449C48.2457 12.297 48.2759 12.367 48.278 12.4407V14.0538C48.278 14.1281 48.2485 14.1994 48.1959 14.252C48.1434 14.3045 48.0721 14.334 47.9978 14.334H44.6017V16.3293H48.7025C48.7768 16.3293 48.8481 16.3588 48.9006 16.4113C48.9532 16.4639 48.9827 16.5351 48.9827 16.6094V18.2311C48.9827 18.3054 48.9532 18.3767 48.9006 18.4292C48.8481 18.4818 48.7768 18.5113 48.7025 18.5113H42.581C42.5067 18.5113 42.4354 18.4818 42.3828 18.4292C42.3303 18.3767 42.3008 18.3054 42.3008 18.2311V8.4332Z" fill="#338CCC"/>
<path d="M49.6455 18.1205L54.2728 8.16132C54.297 8.11415 54.3334 8.07432 54.3782 8.04596C54.423 8.01759 54.4745 8.00172 54.5275 8H54.6718C54.7244 8.00337 54.7753 8.01991 54.8198 8.0481C54.8643 8.07629 54.901 8.11522 54.9265 8.16132L59.5538 18.1205C59.5776 18.1612 59.5897 18.2076 59.5887 18.2547C59.5877 18.3018 59.5736 18.3477 59.5481 18.3872C59.5226 18.4268 59.4866 18.4586 59.4442 18.4789C59.4017 18.4993 59.3544 18.5075 59.3076 18.5026H57.6604C57.3972 18.5026 57.2784 18.4177 57.1425 18.1375L56.6076 16.9658H52.5832L52.0568 18.146C52.0161 18.2539 51.9426 18.3463 51.8466 18.4102C51.7507 18.4742 51.6371 18.5065 51.5219 18.5026H49.8917C49.8449 18.5075 49.7976 18.4993 49.7552 18.4789C49.7127 18.4586 49.6767 18.4268 49.6512 18.3872C49.6257 18.3477 49.6117 18.3018 49.6107 18.2547C49.6097 18.2076 49.6217 18.1612 49.6455 18.1205ZM55.7246 14.9536L54.5954 12.5084L53.4832 14.9536H55.7246Z" fill="#338CCC"/>
<path d="M60.7649 8.4332C60.7649 8.35809 60.7941 8.28593 60.8464 8.23203C60.8987 8.17813 60.97 8.14674 61.0451 8.14453H62.8026C62.8777 8.14674 62.9489 8.17813 63.0012 8.23203C63.0536 8.28593 63.0828 8.35809 63.0828 8.4332V16.3293H66.6063C66.6806 16.3293 66.7518 16.3588 66.8044 16.4113C66.8569 16.4639 66.8865 16.5351 66.8865 16.6094V18.2311C66.8865 18.3054 66.8569 18.3767 66.8044 18.4292C66.7518 18.4818 66.6806 18.5113 66.6063 18.5113H61.0451C60.9708 18.5113 60.8995 18.4818 60.847 18.4292C60.7944 18.3767 60.7649 18.3054 60.7649 18.2311V8.4332Z" fill="#338CCC"/>
<path d="M69.6569 10.3266H67.5428C67.4663 10.3266 67.3928 10.2961 67.3387 10.242C67.2846 10.1879 67.2542 10.1144 67.2542 10.0379V8.4332C67.2542 8.35664 67.2846 8.28322 67.3387 8.22908C67.3928 8.17495 67.4663 8.14453 67.5428 8.14453H74.1059C74.181 8.14674 74.2522 8.17813 74.3045 8.23203C74.3569 8.28593 74.3861 8.35809 74.3861 8.4332V10.0379C74.3861 10.113 74.3569 10.1852 74.3045 10.2391C74.2522 10.293 74.181 10.3243 74.1059 10.3266H72.0173V18.2311C72.0132 18.3041 71.9824 18.373 71.9307 18.4247C71.879 18.4764 71.8101 18.5072 71.7371 18.5113H69.9626C69.8889 18.5092 69.8189 18.4789 69.7668 18.4269C69.7147 18.3748 69.6845 18.3047 69.6824 18.2311L69.6569 10.3266Z" fill="#338CCC"/>
<path d="M75.8623 8.4332C75.8643 8.35872 75.8942 8.28772 75.9461 8.23425C75.998 8.18078 76.0681 8.14876 76.1425 8.14453H77.9085C77.9836 8.14674 78.0548 8.17813 78.1071 8.23203C78.1595 8.28593 78.1887 8.35809 78.1887 8.4332V12.1605H82.4339V8.4332C82.4338 8.35809 82.4631 8.28593 82.5154 8.23203C82.5677 8.17813 82.639 8.14674 82.7141 8.14453H84.48C84.5544 8.14876 84.6245 8.18078 84.6764 8.23425C84.7283 8.28772 84.7582 8.35872 84.7602 8.4332V18.2311C84.7581 18.3047 84.7279 18.3748 84.6758 18.4269C84.6237 18.4789 84.5537 18.5092 84.48 18.5113H82.7141C82.6773 18.5113 82.6408 18.504 82.6068 18.49C82.5728 18.4759 82.5419 18.4552 82.5159 18.4292C82.4899 18.4032 82.4693 18.3723 82.4552 18.3383C82.4411 18.3043 82.4339 18.2679 82.4339 18.2311V14.334H78.1887V18.2311C78.1887 18.2679 78.1814 18.3043 78.1673 18.3383C78.1533 18.3723 78.1326 18.4032 78.1066 18.4292C78.0806 18.4552 78.0497 18.4759 78.0157 18.49C77.9817 18.504 77.9453 18.5113 77.9085 18.5113H76.1425C76.0689 18.5092 75.9988 18.4789 75.9467 18.4269C75.8946 18.3748 75.8644 18.3047 75.8623 18.2311V8.4332Z" fill="#338CCC"/>
<path d="M33.2412 21.4824H31.4667C31.312 21.4824 31.1865 21.6079 31.1865 21.7626V31.5605C31.1865 31.7152 31.312 31.8407 31.4667 31.8407H33.2412C33.3959 31.8407 33.5214 31.7152 33.5214 31.5605V21.7626C33.5214 21.6079 33.3959 21.4824 33.2412 21.4824Z" fill="#2AB2A4"/>
<path d="M35.8711 21.6272C35.8733 21.5543 35.9038 21.4852 35.9561 21.4345C36.0084 21.3838 36.0784 21.3554 36.1513 21.3555H36.5248L42.4681 27.044V21.7715C42.4681 21.6972 42.4976 21.6259 42.5502 21.5734C42.6027 21.5208 42.674 21.4913 42.7483 21.4913H44.5228C44.5958 21.4954 44.6647 21.5262 44.7164 21.5779C44.7681 21.6296 44.7989 21.6985 44.803 21.7715V31.7307C44.7986 31.802 44.7672 31.869 44.7151 31.9179C44.663 31.9669 44.5942 31.994 44.5228 31.9939H44.285C44.2146 31.9852 44.1474 31.9589 44.0898 31.9175L38.2229 26.0506V31.5694C38.2229 31.6437 38.1934 31.715 38.1409 31.7675C38.0883 31.8201 38.0171 31.8496 37.9427 31.8496H36.1683C36.0946 31.8474 36.0246 31.8172 35.9725 31.7652C35.9204 31.7131 35.8902 31.643 35.8881 31.5694L35.8711 21.6272Z" fill="#2AB2A4"/>
<path d="M48.6071 23.6649H46.493C46.4187 23.6649 46.3474 23.6354 46.2948 23.5828C46.2423 23.5303 46.2128 23.459 46.2128 23.3847V21.7715C46.2116 21.7344 46.218 21.6975 46.2317 21.6629C46.2454 21.6284 46.266 21.597 46.2922 21.5708C46.3185 21.5445 46.3498 21.5239 46.3844 21.5103C46.4189 21.4966 46.4559 21.4902 46.493 21.4913H53.056C53.0931 21.4902 53.1301 21.4966 53.1646 21.5103C53.1992 21.5239 53.2305 21.5445 53.2568 21.5708C53.283 21.597 53.3036 21.6284 53.3173 21.6629C53.331 21.6975 53.3374 21.7344 53.3362 21.7715V23.3847C53.3362 23.459 53.3067 23.5303 53.2541 23.5828C53.2016 23.6354 53.1303 23.6649 53.056 23.6649H50.9419V31.5609C50.9399 31.6354 50.91 31.7064 50.8581 31.7599C50.8062 31.8134 50.7361 31.8454 50.6617 31.8496H48.8873C48.8129 31.8454 48.7428 31.8134 48.6909 31.7599C48.639 31.7064 48.6091 31.6354 48.6071 31.5609V23.6649Z" fill="#2AB2A4"/>
<path d="M54.8154 21.7714C54.8176 21.6963 54.849 21.6251 54.9029 21.5727C54.9568 21.5204 55.029 21.4912 55.1041 21.4912H61.2257C61.3 21.4912 61.3712 21.5207 61.4238 21.5733C61.4763 21.6258 61.5059 21.6971 61.5059 21.7714V23.3846C61.5059 23.4589 61.4763 23.5301 61.4238 23.5827C61.3712 23.6352 61.3 23.6648 61.2257 23.6648H57.1248V25.4987H60.521C60.594 25.5027 60.6629 25.5336 60.7146 25.5853C60.7663 25.6369 60.7971 25.7059 60.8011 25.7789V27.392C60.8011 27.4663 60.7716 27.5376 60.7191 27.5901C60.6665 27.6427 60.5953 27.6722 60.521 27.6722H57.1248V29.6674H61.2257C61.3007 29.6697 61.372 29.701 61.4243 29.7549C61.4766 29.8088 61.5059 29.881 61.5059 29.9561V31.5693C61.5059 31.6436 61.4763 31.7149 61.4238 31.7674C61.3712 31.82 61.3 31.8495 61.2257 31.8495H55.1041C55.029 31.8495 54.9568 31.8203 54.9029 31.7679C54.849 31.7156 54.8176 31.6444 54.8154 31.5693V21.7714Z" fill="#2AB2A4"/>
<path d="M63.5273 21.7716C63.5273 21.6973 63.5569 21.6261 63.6094 21.5735C63.662 21.521 63.7332 21.4914 63.8075 21.4914H68.231C68.9894 21.4752 69.7282 21.7325 70.3125 22.2162C70.8968 22.6999 71.2875 23.3777 71.4132 24.1257C71.539 24.8738 71.3912 25.6421 70.9971 26.2902C70.603 26.9383 69.9888 27.4229 69.2668 27.6555L71.296 31.4167C71.3247 31.4604 71.3405 31.5112 71.3418 31.5635C71.3431 31.6157 71.3297 31.6673 71.3032 31.7123C71.2767 31.7574 71.2381 31.7941 71.1919 31.8184C71.1456 31.8426 71.0935 31.8535 71.0413 31.8497H69.0801C69.0319 31.8501 68.9846 31.8378 68.9428 31.8139C68.9011 31.79 68.8664 31.7555 68.8423 31.7139L66.8726 27.7913H65.8537V31.5695C65.8496 31.6425 65.8188 31.7114 65.7671 31.7631C65.7154 31.8148 65.6465 31.8456 65.5735 31.8497H63.8075C63.7332 31.8497 63.662 31.8202 63.6094 31.7676C63.5569 31.7151 63.5273 31.6438 63.5273 31.5695V21.7716ZM68.0442 25.9149C68.3476 25.8976 68.6327 25.7647 68.8412 25.5437C69.0496 25.3226 69.1655 25.0301 69.165 24.7263C69.1627 24.4297 69.0439 24.146 68.8342 23.9363C68.6246 23.7266 68.3408 23.6078 68.0442 23.6056H65.8537V25.9149H68.0442Z" fill="#2AB2A4"/>
<path d="M73.3943 21.7714C73.3965 21.6963 73.4279 21.6251 73.4818 21.5727C73.5357 21.5204 73.6079 21.4912 73.683 21.4912H79.8045C79.8413 21.4912 79.8778 21.4985 79.9117 21.5125C79.9457 21.5266 79.9766 21.5473 80.0027 21.5733C80.0287 21.5993 80.0493 21.6302 80.0634 21.6642C80.0775 21.6982 80.0847 21.7346 80.0847 21.7714V23.3846C80.0847 23.4214 80.0775 23.4578 80.0634 23.4918C80.0493 23.5258 80.0287 23.5567 80.0027 23.5827C79.9766 23.6087 79.9457 23.6293 79.9117 23.6434C79.8778 23.6575 79.8413 23.6648 79.8045 23.6648H75.7037V25.7958H79.0998C79.1728 25.7999 79.2417 25.8307 79.2934 25.8824C79.3451 25.9341 79.3759 26.003 79.38 26.076V27.6892C79.3759 27.7622 79.3451 27.8311 79.2934 27.8828C79.2417 27.9345 79.1728 27.9653 79.0998 27.9694H75.7037V31.5693C75.6934 31.6383 75.6585 31.7012 75.6055 31.7465C75.5524 31.7917 75.4847 31.8163 75.415 31.8155H73.7169C73.6418 31.8155 73.5696 31.7863 73.5157 31.734C73.4618 31.6817 73.4305 31.6104 73.4283 31.5353L73.3943 21.7714Z" fill="#2AB2A4"/>
<path d="M80.3617 31.4589L84.9889 21.4997C85.015 21.4541 85.0519 21.4156 85.0963 21.3875C85.1407 21.3593 85.1913 21.3425 85.2436 21.3384H85.388C85.441 21.3401 85.4925 21.356 85.5373 21.3843C85.5821 21.4127 85.6185 21.4525 85.6427 21.4997L90.2699 31.4589C90.2929 31.5002 90.3043 31.5468 90.303 31.594C90.3017 31.6412 90.2877 31.6872 90.2625 31.7271C90.2373 31.767 90.2019 31.7995 90.1599 31.821C90.1179 31.8425 90.0708 31.8524 90.0237 31.8495H88.3766C88.1134 31.8495 87.9945 31.7561 87.8587 31.4759L87.2983 30.3042H83.3078L82.7729 31.4929C82.7249 31.6003 82.6438 31.6895 82.5415 31.7475C82.4391 31.8056 82.3209 31.8294 82.2041 31.8155H80.5824C80.5346 31.8201 80.4865 31.8115 80.4432 31.7906C80.3999 31.7698 80.3632 31.7375 80.3369 31.6973C80.3107 31.657 80.296 31.6104 80.2943 31.5624C80.2927 31.5144 80.3043 31.4669 80.3277 31.4249L80.3617 31.4589ZM86.4493 28.292L85.32 25.8722L84.2078 28.309L86.4493 28.292Z" fill="#2AB2A4"/>
<path d="M96.0711 21.3389C96.7296 21.32 97.3853 21.4318 98.0003 21.6679C98.6153 21.904 99.1773 22.2597 99.654 22.7143C99.6844 22.7398 99.7088 22.7717 99.7255 22.8076C99.7423 22.8436 99.7509 22.8827 99.7509 22.9224C99.7509 22.962 99.7423 23.0012 99.7255 23.0371C99.7088 23.073 99.6844 23.1049 99.654 23.1304L98.4993 24.3275C98.4755 24.3532 98.4466 24.3738 98.4145 24.3878C98.3823 24.4018 98.3476 24.4091 98.3126 24.4091C98.2775 24.4091 98.2428 24.4018 98.2106 24.3878C98.1785 24.3738 98.1496 24.3532 98.1258 24.3275C97.5738 23.8428 96.8651 23.5744 96.1305 23.5719C95.3555 23.6129 94.6257 23.9497 94.0917 24.5129C93.5576 25.076 93.2598 25.8226 93.2598 26.5987C93.2598 27.3748 93.5576 28.1214 94.0917 28.6845C94.6257 29.2477 95.3555 29.5845 96.1305 29.6255C96.8516 29.6266 97.5508 29.3775 98.1088 28.9208C98.1615 28.8743 98.2295 28.8486 98.2998 28.8486C98.3702 28.8486 98.4381 28.8743 98.4908 28.9208L99.6455 30.1519C99.6969 30.2056 99.7256 30.2771 99.7256 30.3514C99.7256 30.4258 99.6969 30.4973 99.6455 30.551C98.6814 31.4848 97.3878 32.0005 96.0456 31.9858C95.3281 32.0145 94.6122 31.8979 93.9408 31.6431C93.2694 31.3882 92.6564 31.0004 92.1386 30.5029C91.6208 30.0053 91.2089 29.4083 90.9274 28.7476C90.646 28.087 90.501 27.3762 90.501 26.6581C90.501 25.94 90.646 25.2293 90.9274 24.5686C91.2089 23.908 91.6208 23.3109 92.1386 22.8134C92.6564 22.3158 93.2694 21.928 93.9408 21.6732C94.6122 21.4184 95.3281 21.3018 96.0456 21.3304" fill="#2AB2A4"/>
<path d="M101.438 21.7714C101.438 21.6971 101.467 21.6258 101.52 21.5733C101.572 21.5207 101.643 21.4912 101.718 21.4912H107.848C107.922 21.4912 107.993 21.5207 108.046 21.5733C108.098 21.6258 108.128 21.6971 108.128 21.7714V23.3846C108.128 23.4589 108.098 23.5301 108.046 23.5827C107.993 23.6352 107.922 23.6648 107.848 23.6648H103.747V25.4987H107.143C107.218 25.5007 107.289 25.5306 107.342 25.5825C107.395 25.6344 107.427 25.7045 107.432 25.7789V27.392C107.43 27.4671 107.398 27.5384 107.344 27.5907C107.29 27.643 107.218 27.6722 107.143 27.6722H103.747V29.6674H107.848C107.923 29.6697 107.994 29.701 108.046 29.7549C108.099 29.8088 108.128 29.881 108.128 29.9561V31.5693C108.128 31.6436 108.098 31.7149 108.046 31.7674C107.993 31.82 107.922 31.8495 107.848 31.8495H101.735C101.66 31.8495 101.589 31.82 101.537 31.7674C101.484 31.7149 101.454 31.6436 101.454 31.5693L101.438 21.7714Z" fill="#2AB2A4"/>
</svg>
